<svg xmlns="http://www.w3.org/2000/svg" xml:space="preserve" height="375.6" viewBox="0 0 370.224 375.6044" width="370.22" version="1.1"><defs><clipPath id="clipPath18" clipPathUnits="userSpaceOnUse"><path d="m0 720h720v-720h-720z"/></clipPath></defs><g transform="matrix(1.3333 0 0 -1.3333 -294.89 631.21)"><g clip-path="url(#clipPath18)"><g transform="translate(498.33 331.35)"><path d="m0 0c0-76.399-61.934-138.33-138.33-138.33-76.4 0-138.33 61.934-138.33 138.33 0 76.4 61.934 138.33 138.33 138.33s138.33-61.93 138.33-138.33" fill="#d88029"/></g><g transform="translate(498.33 331.35)"><path d="m0 0c0-76.399-61.934-138.33-138.33-138.33-76.4 0-138.33 61.934-138.33 138.33 0 76.4 61.934 138.33 138.33 138.33s138.33-61.93 138.33-138.33z" stroke="#fff" stroke-miterlimit="10" fill="none"/></g><g transform="translate(434.45 298.82)"><path d="m0 0c0-57.502-33.334-104.12-74.453-104.12s-74.454 46.613-74.454 104.12c0 57.5 74.454 169.18 74.454 169.18 0.003 0 74.456-111.68 74.456-169.18z" stroke="#fff" stroke-miterlimit="10" stroke-width="6" fill="none"/></g><g transform="translate(360 196.15)"><path d="m0 0c-40.6 0-73.514 46.024-73.514 102.8 0 56.77 73.514 167.04 73.514 167.04" stroke="#795c3a" stroke-miterlimit="10" fill="#795c3a"/></g><g transform="translate(360 466)"><path d="m0 0s73.514-110.27 73.514-167.04c0-56.78-32.913-102.8-73.514-102.8" fill="#b6bc50"/></g><g transform="translate(388.1 385.63)"><path d="m0 0-27.912-27.911" stroke="#fff" stroke-miterlimit="10" stroke-width="4" fill="none"/></g><g transform="translate(402.71 339.24)"><path d="m0 0-42.521-42.521" stroke="#fff" stroke-miterlimit="10" stroke-width="4" fill="none"/></g><g transform="translate(418.84 290.88)"><path d="m0 0-58.648-58.648" stroke="#fff" stroke-miterlimit="10" stroke-width="4" fill="none"/></g><g transform="translate(360 467.72)"><path d="m0 0v-273.3" stroke="#fff" stroke-miterlimit="10" stroke-width="4" fill="none"/></g></g></g></svg>
