<?xml version="1.0" encoding="utf-8"?>
<!-- Generator: Adobe Illustrator 20.0.0, SVG Export Plug-In . SVG Version: 6.00 Build 0)  -->
<svg version="1.1"  xmlns="http://www.w3.org/2000/svg" xmlns:xlink="http://www.w3.org/1999/xlink" x="0px" y="0px"
	 viewBox="0 0 144.9 108.9" style="enable-background:new 0 0 144.9 108.9;" xml:space="preserve">
<style type="text/css">
	.st0{fill:#F8A01D;}
	.st1{fill:#2C3B69;}
</style>
<g>
	<g>
		<g>
			<path class="st0" d="M108.5,16.3c1.2,0,2.2-1,2.2-2.2V5.7c0-1.2-1-2.2-2.2-2.2s-2.2,1-2.2,2.2v8.4
				C106.3,15.3,107.3,16.3,108.5,16.3z"/>
			<path class="st0" d="M103.1,34c0-3.1,2.5-5.6,5.6-5.6l0,0c3.1,0,5.6,2.5,5.6,5.6v4h7.7v-3.8c0-7.4-6.1-13.5-13.5-13.5l0,0
				c-7.4,0-13.5,6.1-13.5,13.5v3.8h8.1V34z"/>
			<path class="st0" d="M91.1,32c0-1.2-1-2.2-2.2-2.2h-8.4c-1.2,0-2.2,1-2.2,2.2c0,1.2,1,2.2,2.2,2.2h8.4
				C90.1,34.2,91.1,33.2,91.1,32z"/>
			<path class="st0" d="M136.8,29.8h-8.4c-1.2,0-2.2,1-2.2,2.2s1,2.2,2.2,2.2h8.4c1.2,0,2.2-1,2.2-2.2C139,30.8,138,29.8,136.8,29.8
				z"/>
			<path class="st0" d="M86.2,15.9l6.5,5.3c0.9,0.8,2.3,0.6,3.2-0.3c0.8-0.9,0.6-2.3-0.3-3.2L89,12.4c-0.9-0.8-2.3-0.6-3.2,0.3
				C85.2,13.8,85.3,15.2,86.2,15.9z"/>
			<path class="st0" d="M124.3,21.2l6.5-5.3c0.9-0.8,1.1-2.2,0.3-3.2c-0.8-0.9-2.2-1.1-3.2-0.3l-6.5,5.3c-0.9,0.8-1.1,2.2-0.3,3.2
				S123.4,21.9,124.3,21.2z"/>
		</g>
		<path class="st1" d="M125.5,37.9H91.7c-1.3,0-2.3,1-2.3,2.3v25.1c0,1.3,1,2.3,2.3,2.3h33.8c1.3,0,2.3-1,2.3-2.3V40.2
			C127.8,38.9,126.8,37.9,125.5,37.9z M110.4,54v3.4c0,0.9-0.8,1.7-1.7,1.7s-1.7-0.8-1.7-1.7V54c-1.1-0.6-1.8-1.7-1.8-3.1
			c0-1.9,1.6-3.5,3.5-3.5s3.5,1.6,3.5,3.5C112.2,52.2,111.5,53.4,110.4,54z"/>
	</g>
	<g>
		<path class="st1" d="M6,67.1V40.3h5.7v21.8H23v5H6z"/>
		<path class="st1" d="M23.7,57.4c0-5.6,4.2-10.2,10.1-10.2c5.8,0,9.7,4.4,9.7,10.7v1.1H29.1c0.3,2.5,2.3,4.5,5.6,4.5
			c1.7,0,4-0.7,5.2-1.9l2.3,3.3c-1.9,1.7-5,2.7-8,2.7C28.2,67.6,23.7,63.6,23.7,57.4z M33.8,51.2c-3.2,0-4.6,2.3-4.8,4.3h9.6
			C38.5,53.7,37.1,51.2,33.8,51.2z"/>
		<path class="st1" d="M47.3,62.3V52.2h-3.2v-4.5h3.2v-5.3h5.2v5.3h4v4.5h-4V61c0,1.2,0.7,2.1,1.7,2.1c0.7,0,1.5-0.3,1.7-0.5
			l1.1,3.9c-0.7,0.7-2.1,1.3-4.3,1.3C49.3,67.6,47.3,65.7,47.3,62.3z"/>
		<path class="st1" d="M61.7,51.4l-2.2-1.8c1.3-0.7,2.8-2.3,3.1-3.8c-0.1,0.1-0.5,0.1-0.7,0.1c-1.5,0-2.8-1.2-2.8-2.9
			c0-1.7,1.5-3.2,3.2-3.2c1.9,0,3.6,1.5,3.6,4.1C65.8,47,64.2,49.7,61.7,51.4z"/>
		<path class="st1" d="M64.2,64.6l2.2-3.6c1.4,1.3,4.3,2.7,6.7,2.7c2.2,0,3.3-0.9,3.3-2.1c0-1.3-1.7-1.7-3.9-2.1
			c-3.4-0.7-7.6-1.5-7.6-6.2c0-3.3,2.9-6.1,8-6.1c3.3,0,5.9,1.1,7.9,2.7l-2.1,3.5c-1.1-1.3-3.4-2.3-5.8-2.3c-1.9,0-3.1,0.9-3.1,1.9
			c0,1.1,1.5,1.5,3.7,1.9c3.4,0.7,7.8,1.5,7.8,6.4c0,3.6-3,6.2-8.4,6.2C69.5,67.6,66.2,66.5,64.2,64.6z"/>
		<path class="st1" d="M6,97.5V70.7h19v5H11.7v5.7h13v5h-13v6.1H25v5L6,97.5L6,97.5z"/>
		<path class="st1" d="M40.9,97.5V85.8c0-2.7-1.4-3.6-3.6-3.6c-2,0-3.6,1.1-4.4,2.3v13.1h-5.1V78.1h5.1v2.5c1.3-1.5,3.6-3,6.8-3
			c4.3,0,6.3,2.4,6.3,6.2v13.8H40.9z"/>
		<path class="st1" d="M47.6,87.7c0-6,4.3-10.2,10.3-10.2c4,0,6.4,1.7,7.7,3.5l-3.4,3.2c-0.9-1.3-2.3-2.1-4.1-2.1
			c-3.1,0-5.3,2.3-5.3,5.6s2.1,5.7,5.3,5.7c1.7,0,3.2-0.8,4.1-2.1l3.4,3.1C64.4,96.2,62,98,58,98C51.9,98,47.6,93.8,47.6,87.7z"/>
		<path class="st1" d="M68.1,97.5V78.1h5.1v2.7c1.3-1.7,3.8-3.2,6.2-3.2v5c-0.3-0.1-0.9-0.1-1.4-0.1c-1.7,0-4,0.9-4.8,2.2v12.8
			L68.1,97.5L68.1,97.5z"/>
		<path class="st1" d="M83.7,100.5c0.5,0.2,1.1,0.3,1.6,0.3c1.3,0,2.2-0.3,2.7-1.4l0.7-1.7l-7.9-19.7h5.5l5.1,13.6l5.1-13.6h5.5
			l-9.2,22.6c-1.5,3.7-4,4.6-7.4,4.7c-0.6,0-1.9-0.1-2.5-0.3L83.7,100.5z"/>
		<path class="st1" d="M108.6,95v9.9h-5.1V78.1h5.1v2.5c1.5-1.9,3.6-3,6-3c5,0,8.6,3.7,8.6,10.2c0,6.5-3.6,10.2-8.6,10.2
			C112.3,98,110.1,97,108.6,95z M117.9,87.7c0-3.4-1.9-5.6-4.9-5.6c-1.7,0-3.6,0.9-4.4,2.2v6.9c0.9,1.2,2.8,2.2,4.4,2.2
			C115.9,93.4,117.9,91.1,117.9,87.7z"/>
		<path class="st1" d="M127.8,92.7V82.6h-3.2v-4.5h3.2v-5.3h5.2v5.3h4v4.5h-4v8.7c0,1.2,0.7,2.1,1.7,2.1c0.7,0,1.5-0.3,1.7-0.5
			l1.1,3.9c-0.7,0.7-2.1,1.3-4.3,1.3C129.6,98,127.8,96.1,127.8,92.7z"/>
	</g>
</g>
</svg>
