<svg xmlns="http://www.w3.org/2000/svg" height="640" width="640" version="1.0">
 <defs>
  <meshgradient id="meshgradient10" gradientUnits="userSpaceOnUse" gradientTransform="translate(0 42.866)" y="0" x="-2.8659855e-05">
   <meshrow>
    <meshpatch>
     <stop stop-color="#fff" path="c 213.333,0  426.667,0  640,0"/>
     <stop stop-color="#008000" path="c 0,206.386  0,412.772  0,619.157"/>
     <stop stop-color="#fff" path="c -213.333,0  -426.667,0  -640,0"/>
     <stop stop-color="#008000" path="c 0,-206.386  0,-412.772  0,-619.157"/>
    </meshpatch>
   </meshrow>
  </meshgradient>
 </defs>
 <g fill="url(#meshgradient10)" transform="translate(1.3495 21.574)">
  <path d="m311.4 520.4h18.933v10.688h-18.933zm6.1244 88.912c5.2023-28.695 7.1507-67.895 3.6482-67.895-0.90109 0-4.5112 1.6881-8.0226 3.7514-8.4278 4.9523-30.238 15.554-31.998 15.554-0.76284 0-1.8112-0.69612-2.3298-1.547-0.79587-1.3058-2.5345-0.80645-11.154 3.2036-8.9389 4.1586-10.523 4.5971-12.717 3.519-2.1627-1.0628-3.6323-0.73596-10.724 2.3849-9.0262 3.972-10.108 4.1722-13.142 2.4323-1.6878-0.96785-2.9487-0.71306-6.901 1.3944-7.8484 4.185-9.6214 4.4099-10.464 1.3274-0.39722-1.4532-1.0362-2.4846-1.4201-2.2921-6.5756 3.2992-12.776 5.2267-17.296 5.3765-6.2961 0.20868-12.824 1.9497-29.119 7.7667-6.278 2.241-11.643 3.8651-11.922 3.609-1.311-1.2038 1.6545-3.9383 12.727-11.736 6.591-4.6415 12.919-9.2299 14.063-10.196 1.1435-0.96648 3.3101-2.5412 4.8145-3.4994 1.5093-0.96132 2.7493-2.7671 2.7664-4.0288 0.0239-1.7592 1.514-2.9672 6.4602-5.2372 4.0548-1.8609 5.9364-3.2302 5.0949-3.7078-2.518-1.429-0.0514-3.8143 6.1462-5.9435 3.4121-1.1722 7.181-2.1313 8.3754-2.1313 2.4784 0 2.6128-0.39276 1.051-3.0724-0.98353-1.6875-0.54349-2.0727 3.5963-3.1486 2.5943-0.67423 7.5578-1.265 11.03-1.3127 5.864-0.0806 6.2712-0.24047 5.7241-2.2464-0.54905-2.0133-0.04-2.2047 7.519-2.8277 4.5149-0.3721 9.7458-0.22291 11.804 0.33665 2.9612 0.8051 3.5824 0.73301 3.1246-0.36253-0.90614-2.1683 4.8976-2.7068 22.488-2.0865l16.06 0.56632-11.066-3.5989c-10.475-3.4067-34.244-10.173-44.572-12.687-2.605-0.63426-4.5513-1.4748-4.3251-1.8678 0.82006-1.4255-3.2078-3.77-6.9872-4.067-2.1282-0.16727-8.1798-1.007-13.448-1.8662-8.0456-1.3121-9.7028-1.9138-10.356-3.7602-0.42752-1.209-0.71952-2.6975-0.64889-3.3078 0.0707-0.61032-4.1883-1.9415-9.4642-2.9582-10.218-1.969-14.255-4.3009-13.122-7.5796 0.52215-1.5106-0.0782-2.0249-2.9864-2.5585-10.145-1.8613-15.072-3.6703-16.873-6.1948-1.7704-2.4811-1.7682-2.7453 0.0393-4.5793 1.6354-1.6593 1.6682-1.9462 0.22255-1.9462-0.93258 0-5.2704-0.7413-9.6397-1.6473-5.9528-1.2344-8.376-2.2526-9.6672-4.0621-1.6159-2.2645-1.5604-2.5392 0.8923-4.4154 1.4385-1.1004 2.242-2.073 1.7855-2.1615-0.45645-0.0884-1.2034-0.22329-1.6598-0.29967-4.7255-0.79064-18.291-6.3827-20.338-8.3842-2.5514-2.4938-2.5654-2.6021-0.5164-3.9778 2.0707-1.3904 2.0707-1.4257 0-2.0872-5.5936-1.7871-12.182-4.7054-13.961-6.1838-2.116-1.7584-2.7026-5.3922-0.87035-5.3922 2.954 0 0.44492-1.77-5.5195-3.8937-3.6443-1.2976-7.6689-3.5766-8.9435-5.0645l-2.3174-2.7052 2.3173-1.4128c2.2151-1.3505 1.9879-1.5896-5.15-5.4196-8.1054-4.3492-9.3928-5.553-8.5631-8.0065 0.35199-1.0409-0.51046-2.0495-2.4443-2.8586-4.6948-1.9642-11.505-7.2878-11.175-8.7352 0.43806-1.9198-12.365-10.995-25.619-18.159-8.6705-4.6867-10.93-6.3154-9.1033-6.5618 1.3364-0.18029 5.0324 0.44688 8.2134 1.3937 6.7797 2.018 29.276 10.185 32.021 11.625 1.041 0.54611 2.6075 0.74109 3.481 0.43329 0.87355-0.3078 4.7524 0.95373 8.6196 2.8034s7.4048 3.5187 7.8612 3.709c0.45646 0.19029 0.82992-0.37797 0.82992-1.2628 0-0.88484 0.27371-1.6088 0.60822-1.6088 1.3759 0 7.966 3.5252 11.906 6.3688 4.1187 2.9724 4.2294 2.9925 4.8319 0.87687 0.33918-1.1909 1.0109-2.1653 1.4927-2.1653 1.3279 0 12.979 8.9243 13.574 10.397 0.2968 0.73502 1.0524 0.0589 1.7596-1.5746l1.2394-2.8628 3.5953 2.3317c1.9774 1.2824 5.9375 4.4709 8.8 7.0855l5.2047 4.7538 1.2438-3.4607c0.6841-1.9034 1.5089-3.4607 1.8328-3.4607 1.1027 0 13.059 10.359 16.555 14.344l3.4835 3.97 1.1618-3.0603c0.63902-1.6832 1.6286-3.0603 2.1991-3.0603 1.5042 0 14.575 13.055 15.633 15.615 0.86828 2.0998 0.93962 2.0804 2.307-0.62744 0.77605-1.5368 2.0209-2.7942 2.7663-2.7942 1.6809 0 14.871 12.823 14.932 14.516 0.0243 0.6781 0.78719-0.0245 1.6952-1.5613 0.90798-1.5368 2.0222-2.7942 2.4759-2.7942 1.1629 0 11.742 11.176 14.451 15.267l2.2547 3.4044 1.1308-2.731c0.62194-1.5021 1.5858-2.7311 2.1419-2.7311 1.2677 0 14.521 16.025 14.575 17.622 0.0216 0.64633 0.644 0.17643 1.3832-1.0442s1.6721-2.3638 2.0731-2.5402c0.87727-0.38602 13.73 14.704 16.109 18.913 1.6734 2.9606 1.6896 2.9647 2.9781 0.75408 1.2809-2.1977 1.34-2.1798 5.2474 1.5955 2.1735 2.1001 5.9619 6.2004 8.4186 9.1118 4.7647 5.6468 18.223 17.483 24.597 21.634l3.858 2.5118-2.4748-3.1914c-1.3612-1.7553-2.4748-3.4888-2.4748-3.8523 0-0.36353-1.9538-3.3028-4.3418-6.5317-4.4958-6.079-12.684-13.95-26.168-25.154-4.3039-3.5761-8.4646-7.9784-9.2461-9.7828-1.2974-2.9956-3.2705-4.6999-15.261-13.182-3.2493-2.2984-6.9503-6.8271-6.9503-8.5047 0-0.21554 0.87139-0.41586 1.9365-0.44518 1.553-0.0428 1.395-0.39485-0.79788-1.7781-9.3573-5.9026-18.214-12.676-19.461-14.882-1.2556-2.2222-1.2013-2.694 0.40435-3.5191 1.0199-0.52408 1.6095-1.1397 1.3102-1.3681-0.29925-0.2284-4.0298-2.6284-8.29-5.3335-9.848-6.2529-14.057-10.661-10.18-10.661 0.79119 0 2.0059-0.52097 2.6993-1.1577 0.94335-0.86621-0.32431-2.1001-5.0349-4.9005-6.0141-3.5754-13.488-10.312-13.488-12.156 0-0.47882 1.2449-1.1575 2.7664-1.5081 1.5215-0.35066 2.7664-1.0068 2.7664-1.4582 0-0.45132-3.0386-2.8419-6.7525-5.3125-3.7139-2.4705-7.4417-5.7155-8.2839-7.211-1.4758-2.6204-1.4113-2.7434 1.773-3.3856 4.223-0.85169 4.163-1.6463-0.29197-3.8704-4.787-2.3899-15.245-11.046-15.228-12.605 0.009-0.68072 1.2954-1.8546 2.8627-2.6086l2.8496-1.371-4.5625-2.7725c-5.5682-3.3836-13.309-9.7146-13.309-10.885 0-0.47138 1.8928-1.3778 4.2063-2.0142l4.2063-1.1572-9.7391-8.816c-5.3565-4.8488-9.7391-9.5538-9.7391-10.455 0-1.0688 1.3463-1.8714 3.8677-2.3057l3.8677-0.66626-7.0021-6.3054c-8.7219-7.854-9.6239-9.7023-5.1372-10.526 1.8135-0.33305 3.2973-0.77469 3.2973-0.98144 0-0.20676-2.4423-3.159-5.4274-6.5605-5.5814-6.36-7.5136-10.071-5.258-10.099 0.70378-0.009 2.0106-0.44006 2.9039-0.95888 1.3796-0.80119 1.2877-1.2199-0.61017-2.7787-3.6394-2.9893-8.2068-9.0121-8.2068-10.822 0-1.1324 0.93635-1.6822 2.8648-1.6822h2.8648l-2.9177-3.1839c-3.4518-3.7668-7.2381-10.319-7.2381-12.525 0-0.87033 0.95125-1.5646 2.1437-1.5646 2.0067 0 1.936-0.42069-1.1066-6.5822-3.3304-6.7444-4.2591-11.384-2.0252-10.116 0.81621 0.4632 0.98671 0.004 0.5108-1.3713-0.39288-1.1366-1.659-5.1947-2.8135-9.018-1.1546-3.8233-5.119-12.987-8.81-20.363-3.6909-7.3764-6.7108-13.734-6.7108-14.129 0-2.0236 5.567 4.5184 15.155 17.809 5.8768 8.1464 11.796 15.779 13.155 16.962 1.3583 1.1829 3.7993 4.7314 5.4244 7.8857s3.4358 5.4621 4.0237 5.1285c0.58793-0.33365 1.8329-0.0245 2.7666 0.68712 2.078 1.5835 6.454 9.4742 7.5365 13.589l0.79529 3.0233 1.966-2.3932 1.966-2.3933 1.7276 2.2649c0.9502 1.2457 2.6421 4.9591 3.7598 8.252 2.0233 5.9611 3.2437 7.0257 5.5874 4.8737 0.67729-0.62191 1.7123-0.85791 2.2999-0.52443 1.6033 0.90986 4.9778 7.8038 5.6899 11.624l0.62714 3.3646 2.6268-2.2513c2.5498-2.1852 2.6625-2.1945 3.8443-0.3163 2.4605 3.9108 6.1178 12.919 6.8411 16.85l0.74393 4.0432 2.449-2.1126c1.347-1.1619 2.9994-2.1126 3.6722-2.1126 1.3005 0 4.7203 12.236 4.7203 16.889v2.7708l2.8556-2.4633c2.7639-2.3842 2.9046-2.4018 4.3808-0.54795 0.8389 1.0534 1.8389 3.8355 2.2221 6.1824 1.0422 6.3816 2.0771 7.4794 4.866 5.1618 1.2581-1.0455 2.5191-1.6882 2.8022-1.4282 1.1579 1.0632 5.9061 13.871 6.632 17.889 0.42908 2.3751 1.0778 4.3184 1.4415 4.3184 0.36372 0 1.8118-0.99249 3.2181-2.2055 1.4062-1.213 2.8677-1.92 3.2478-1.571 1.1568 1.0622 3.7082 12.17 3.7266 16.223 0.0183 4.0457 1.0857 4.777 3.337 2.2862 0.75766-0.83826 1.7759-1.5241 2.2628-1.5241 1.1943 0 3.0774 5.4597 4.7454 13.758 1.2757 6.3468 1.5092 6.726 3.1912 5.1815 0.99811-0.9165 2.046-1.6664 2.3286-1.6664 1.0645 0 6.6309 16.987 7.2735 22.197l0.66993 5.4316 3.046-2.2052c2.2706-1.6438 3.164-1.8625 3.5092-0.85919 0.25471 0.7403 2.0376 5.8051 3.9621 11.255 1.9244 5.45 3.831 12.008 4.2368 14.574l0.73782 4.6644 2.99-2.162 2.99-2.162 1.0926 3.8458c2.6653 9.3812 4.4135 16.355 5.1032 20.357 0.73738 4.2788 1.9173 5.3804 3.4013 3.1756 0.98661-1.4658 2.9519 3.6775 7.037 18.416 2.9359 10.593 8.9295 25.382 14.618 36.071l2.1631 4.0643-0.51182-8.1287c-0.28947-4.5971-1.7248-11.66-3.3039-16.257-1.5356-4.4708-3.5589-11.558-4.4962-15.749-1.481-6.6229-1.4955-7.7649-0.11054-8.7229 0.99725-0.68979 1.2034-1.4605 0.55089-2.0596-1.024-0.94032-8.8394-20.944-8.8394-22.624 0-0.47201 1.1954-0.64836 2.6565-0.39191l2.6565 0.46632-4.2595-9.7193c-2.3427-5.3456-4.5895-11.334-4.9928-13.308-0.6872-3.3635-0.55174-3.5889 2.1563-3.5889 1.5892 0 2.8895-0.14304 2.8895-0.31787s-1.2141-2.6287-2.6979-5.4531c-2.4647-4.6912-6.1546-15.787-6.1546-18.508 0-0.6179 1.5471-1.1234 3.4381-1.1234 2.8472 0 3.298-0.3056 2.6229-1.7781-2.7018-5.8937-7.1633-17.229-7.755-19.702-0.66429-2.7772-0.51894-2.9054 3.2943-2.9054h3.9893l-1.5654-2.7942c-1.8832-3.3614-6.2373-16.107-6.2373-18.258 0-1.1295 0.88528-1.4131 3.3672-1.0786 2.7579 0.37169 3.2257 0.16274 2.5851-1.1548-1.6073-3.3057-5.7626-14.939-6.5104-18.227l-0.77545-3.4092 4.7062 0.73009c4.3132 0.66914 4.632 0.572 3.8168-1.1632-2.7943-5.9476-5.0222-13.072-5.6695-18.129l-0.73701-5.7581 3.9552 0.68133 3.9552 0.68134-2.6606-5.9419c-1.4633-3.268-2.6724-7.485-2.6869-9.3711-0.0253-3.2977 0.10557-3.4051 3.4102-2.7982 2.9159 0.53549 3.3276 0.37075 2.7182-1.0877-4.9909-11.942-4.9643-15.187 0.1205-14.718l3.475 0.32055-1.6743-4.3849c-0.92087-2.4117-1.7453-6.671-1.832-9.4653l-0.15772-5.0804 4.2602 0.2354c3.6663 0.20259 4.1453-0.01 3.4362-1.5241-0.45321-0.96775-1.0633-6.0506-1.3557-11.295l-0.53167-9.5357 4.0025 0.68947c3.9496 0.68039 3.988 0.65445 2.9049-1.9614-1.3548-3.2719-1.4052-10.66-0.0858-12.573 0.53787-0.77998 1.7751-1.1372 2.7495-0.79394 1.5007 0.52878 1.7715-0.29025 1.7715-5.3573 0-6.8325 0.7294-9.2657 2.5814-8.611 0.91662 0.32408 1.1797-1.1986 0.90625-5.2447-0.36482-5.397-0.26142-5.6653 1.9365-5.0247 2.1317 0.62124 2.3219 0.28829 2.3219-4.0646 0-2.6077 0.69547-6.1821 1.5455-7.9431 0.85004-1.761 2.1215-8.0028 2.8255-13.871 1.4805-12.34 4.2208-30.627 5.2527-35.055l0.71048-3.0482 0.80868 2.5402c0.44477 1.3971 0.85832 8.2315 0.91899 15.187 0.13383 15.344 2.1878 35.89 3.6746 36.756 0.59587 0.34696 0.90909 3.1999 0.69604 6.3399-0.3517 5.1839-0.19794 5.6538 1.6715 5.1075 1.9126-0.55884 2.0301-0.0207 1.6544 7.5751-0.37988 7.681-0.26991 8.1647 1.8141 7.9788 1.998-0.17825 2.2183 0.40807 2.2162 5.8986-0.00089 3.3531-0.41449 7.1431-0.91822 8.4224-0.8444 2.1444-0.68011 2.2716 2.1049 1.6297l3.0208-0.69616-0.58586 8.6229c-0.32223 4.7426-1.1768 9.6368-1.899 10.876-1.2675 2.1746-1.1759 2.2294 2.6329 1.5732l3.946-0.67977v3.956c0 3.7393-1.9592 11.782-3.8848 15.947-0.89188 1.9292-0.01 1.9042 5.9874-0.16991 1.2644-0.43731 1.4393 0.66273 0.95125 5.9819-0.32894 3.5848-1.3617 8.5152-2.295 10.957l-1.6969 4.4387 3.8465-0.57316c2.6475-0.3945 4.0226-0.15185 4.4114 0.77845 0.4861 1.1632-2.8478 11.319-5.6448 17.196-0.80395 1.689-0.52617 1.8168 2.5851 1.1894 3.3802-0.68172 3.4858-0.59767 3.4858 2.7749 0 4.0588-3.4691 13.824-6.6943 18.843-2.7087 4.2155-2.268 4.8469 2.3515 3.3682l3.5161-1.1255-0.53013 5.0662c-0.29158 2.7864-2.0681 7.9154-3.9479 11.398-1.8798 3.4824-3.2671 6.47-3.0829 6.6391 0.18411 0.16908 1.6665-0.1575 3.2941-0.72573 6.3076-2.2021 4.8658 4.8076-4.6642 22.675-0.25498 0.4781 1.0892 0.55607 2.9872 0.1733 3.3265-0.67088 3.4501-0.57407 3.4322 2.687-0.0107 1.8607-1.7447 7.2695-3.8544 12.02-2.1097 4.7502-3.8441 8.751-3.8544 8.8907-0.0107 0.13971 1.2658 0.25402 2.8357 0.25402 2.6358 0 2.7971 0.25279 2.1071 3.3023-0.41095 1.8162-2.4423 6.5815-4.5142 10.589-2.0718 4.008-3.767 7.5088-3.767 7.7795 0 0.27078 0.9959 0.25318 2.2131-0.0391 3.487-0.8373 2.8384 4.1534-1.6598 12.772-2.1301 4.0814-3.873 7.6208-3.873 7.8653 0 0.24452 1.2449 0.15769 2.7664-0.19297 2.2956-0.52905 2.7664-0.27299 2.7664 1.5048 0 1.1783 0.49795 2.1423 1.1066 2.1423 0.60861 0 1.1066-2.2862 1.1066-5.0804 0-3.746 0.41881-5.0804 1.5945-5.0804 0.877 0 1.9023 0.45723 2.2784 1.0161 1.6881 2.5081 3.7523 0.9167 3.6242-2.7942-0.15558-4.5076 1.3666-19.74 2.0805-20.818 0.27327-0.41294 1.6401-0.0629 3.0374 0.77771l2.5405 1.5285 0.65991-9.946c0.7426-11.193 1.4907-13.828 3.6922-13.006 0.83439 0.31155 2.1547 0.80546 2.934 1.0976 1.0525 0.39454 1.7802-2.2773 2.8294-10.388 0.77679-6.0055 1.6652-11.151 1.9742-11.435 0.30898-0.28371 1.957 0.21944 3.6623 1.1181l3.1005 1.6339 0.74169-8.2576c0.40793-4.5416 1.2505-10.006 1.8723-12.143l1.1306-3.8856 3.6623 2.565 3.6623 2.565 0.70639-5.5189c0.92701-7.2425 2.7325-14.849 3.953-16.654 0.83065-1.2284 1.4031-1.187 3.8372 0.27744l2.8608 1.7212 0.005-3.8337c0.003-2.1086 0.5285-5.6627 1.1669-7.898 2.0483-7.1723 1.9658-7.0697 4.1933-5.2187 3.092 2.5694 4.5927 2.006 4.5927-1.7244 0-4.3902 2.3003-14.903 3.2609-14.903 0.40827 0 1.7089 0.67132 2.8903 1.4918 3.1869 2.2133 3.4318 1.9933 3.6394-3.27 0.21343-5.41 3.0864-15.495 4.4141-15.495 0.47528 0 1.8307 0.67132 3.0121 1.4918 3.0894 2.1456 3.807 1.9127 3.814-1.2378 0.009-3.7355 1.8753-9.4535 3.8716-11.857 1.5278-1.8395 1.7377-1.8523 3.6958-0.22512 1.9948 1.6577 2.1018 1.5524 2.7355-2.6928 0.3627-2.4298 1.1868-5.6915 1.8314-7.2482 1.1377-2.7478 1.2521-2.7821 3.9215-1.176s2.7496 1.582 2.7496-0.82509c0-1.3637 1.0134-4.6502 2.252-7.3035 1.7138-3.6713 2.56-4.5413 3.541-3.6405 1.9052 1.7494 3.0595 1.4423 3.0595-0.81409 0-1.0987 0.84094-3.617 1.8687-5.596 1.4008-2.6973 2.3706-3.4521 3.873-3.0142 1.2786 0.37263 2.0042 0.0725 2.0042-0.82868 0-0.77704 2.1568-4.58 4.793-8.4512 7.6197-11.189 14.019-21.317 14.019-22.188 0-1.5671 8.2221-13.005 8.6001-11.964 0.46057 1.2688-1.9365 8.7941-5.1889 16.29-3.6882 8.5001-10.183 32.116-8.9374 32.5 1.7723 0.54571 1.2709 4.5123-1.1131 8.806-2.6472 4.7677-2.6235 4.5724-0.55328 4.5724 2.8488 0 2.0217 2.6996-4.7913 15.639-0.26222 0.49801 0.83304 0.60362 2.4339 0.23468 2.6444-0.60945 2.9107-0.39998 2.9107 2.2901 0 1.6285-1.9032 6.4382-4.2293 10.688l-4.2293 7.7273h3.1228c2.558 0 3.1228 0.44076 3.1228 2.437 0 2.6879-5.3089 12.523-9.4629 17.531-2.8233 3.4036-2.1543 4.4178 2.914 4.4178 4.6063 0 2.109 5.2095-6.332 13.209l-5.8969 5.5884 3.8361 1.0314 3.8362 1.0314-2.297 3.541c-1.2634 1.9475-4.8187 5.9147-7.9007 8.8158l-5.6037 5.2748 2.9749 0.68562c4.2038 0.9688 3.0417 3.7443-4.372 10.442-3.2997 2.9812-5.9994 5.6103-5.9994 5.8425s1.0295 0.42218 2.2877 0.42218c4.3409 0 0.63301 6.4602-6.8134 11.871l-4.5228 3.2864 2.8644 0.66014c1.5754 0.36307 2.8644 1.0979 2.8644 1.6329 0 1.2248-2.2768 5.2435-3.3537 5.9195-0.4451 0.27943-3.173 2.5147-6.0621 4.9672-4.4447 3.7732-4.9745 4.6022-3.444 5.3887 2.6853 1.3799 0.71213 4.1391-9.0407 12.642-7.506 6.5444-8.0835 7.3162-5.941 7.9406 2.2237 0.64806 2.2715 0.87222 0.75861 3.5585-0.888 1.5768-4.8677 5.4895-8.8438 8.6949-7.3714 5.9426-8.5765 7.6119-5.4948 7.6119 3.4027 0 0.3698 4.5078-8.4636 12.579-4.8195 4.4039-8.7627 8.1761-8.7627 8.3827 0 0.20659 0.74693 0.37562 1.6598 0.37562 1.8884 0 2.2227 1.5928 0.53524 2.5504-0.61853 0.35102-0.86738 1.0204-0.55298 1.4875 0.31441 0.46712-3.3815 3.9126-8.2132 7.6565-4.8317 3.744-9.2648 8.0169-9.8514 9.4953-0.58665 1.4785-4.829 6.8032-9.4274 11.833-11.014 12.046-30.291 38.062-24.469 33.023 11.399-9.867 22.094-20.691 27.157-27.487 7.6091-10.211 8.5305-11.048 10.007-9.0922 0.8401 1.1126 1.299 1.1903 1.6999 0.28743 1.9203-4.3247 7.2602-12.352 12.008-18.051 4.6018-5.5236 5.7396-6.3832 6.7614-5.1079 1.6716 2.0863 2.2936 1.9323 3.0399-0.75282 0.34949-1.2574 2.657-4.7481 5.1277-7.7571 2.4708-3.009 4.9772-6.2097 5.5698-7.1126 0.97591-1.4868 1.2272-1.4644 2.6639 0.23737 1.4815 1.7549 1.7684 1.5535 4.3424-3.0482 1.5158-2.71 4.2735-6.5276 6.1282-8.4836 3.431-3.6183 3.886-3.5809 6.185 0.50804 0.34085 0.60622 0.83472 0.49529 1.2244-0.27501 0.57579-1.1383 12.148-16.282 13.335-17.45 0.25233-0.24839 1.5201 0.52295 2.8173 1.7141l2.3585 2.1657 2.3136-3.9259c2.5488-4.325 9.9058-12.203 11.396-12.203 0.51972 0 1.5425 1.4536 2.2728 3.2303l1.3279 3.2303 3.0643-4.1649c3.7433-5.0877 11.096-12.456 12.429-12.456 0.53688 0 1.5513 1.6003 2.2543 3.5563 1.4122 3.9291 2.8269 4.5505 3.8198 1.6778 0.70074-2.0273 16.371-15.395 18.047-15.395 0.55865 0 1.6389 1.2559 2.4006 2.7909 1.3814 2.784 1.3894 2.7858 3.2306 0.69787 2.5088-2.8449 15.753-11.617 17.539-11.617 0.79114 0 1.4384 0.83826 1.4384 1.8628 0 3.061 1.1856 3.2374 4.0545 0.60306 2.7172-2.495 12.57-7.5463 14.72-7.5463 0.62884 0 1.1433 0.75671 1.1433 1.6816 0 1.515 0.19185 1.528 1.9365 0.13057 2.9294-2.3463 7.149-4.1691 10.236-4.4216 1.5215-0.12448 9.7377-3.0581 18.258-6.5191 19.806-8.0448 20.472-8.279 20.472-7.1964 0 0.49401-3.3612 3.3203-7.4693 6.2807-10.725 7.7284-22.987 18.465-22.805 19.966 0.19039 1.5642-7.6044 7.8726-12.762 10.328-3.7299 1.776-3.7383 1.7962-1.3826 3.3113 2.2624 1.4551 2.2808 1.5987 0.4031 3.159-1.0819 0.89905-4.8446 2.8443-8.3616 4.3228-5.8188 2.4461-6.2146 2.811-4.3962 4.0523 2.9558 2.0177 0.87514 4.3565-7.2772 8.1801-8.4241 3.951-8.912 4.3749-6.4764 5.6265 4.0648 2.0888-2.1313 6.7066-13.999 10.433-1.9366 0.60815-1.9572 0.78716-0.28553 2.4833 1.4652 1.4866 1.545 2.1386 0.42727 3.4916-1.6556 2.0041-16.553 8.854-19.325 8.8858-1.653 0.0189-1.5489 0.31797 0.65238 1.8724 5.3144 3.7528-0.6406 8.6371-13.962 11.452-6.058 1.28-7.0314 2.1817-4.0238 3.7272 3.6886 1.8955-0.18152 4.8682-10.873 8.3517-14.89 4.8514-14.767 4.7797-12.376 7.2058 1.879 1.9064 1.8655 2.0726-0.33225 4.0906-1.521 1.3966-5.7341 2.752-12.538 4.0333-9.2108 1.7348-13.067 3.5128-13.214 6.0932-0.0194 0.33917-4.3923 2.1184-9.7176 3.9539s-10.745 4.3792-12.043 5.6527c-3.2612 3.1988-7.6893 5.1307-32.496 14.178-11.868 4.3283-24.317 9.1928-27.664 10.81-5.5601 2.6862-5.7513 2.8875-2.2131 2.3284 2.1301-0.33659 8.9551-1.9234 15.167-3.5261 16.533-4.266 19.137-4.6204 19.137-2.6046 0 1.4844 0.26424 1.5032 2.4898 0.17685 1.9883-1.1849 10.302-2.9338 19.088-4.0153 0.6086-0.0748 0.94438 0.92718 0.74617 2.2269-0.33182 2.1758-0.158 2.2636 2.1934 1.1081 2.2681-1.1146 16.777-4.933 18.915-4.9779 0.45647-0.01 0.82992 0.94598 0.82992 2.1235 0 1.6204 0.47016 1.9752 1.934 1.4594 3.9877-1.4051 12.598-2.7498 14.137-2.2076 0.90771 0.31984 1.3114 1.2449 0.93564 2.1441-0.54101 1.2946-0.18623 1.4166 1.9551 0.67276 1.4388-0.49982 5.2991-1.2458 8.5784-1.6577l5.9623-0.74895-0.55143 2.6488-0.55144 2.6487 7.5912-0.64782c7.2424-0.61808 7.5912-0.54778 7.5912 1.5302 0 1.9994 0.57984 2.1781 7.0697 2.1781 6.0539 0 7.0476 0.25548 6.916 1.7781-0.0845 0.97799 0.47254 1.6627 1.2379 1.5216 0.76538-0.14113 3.5041 0.17661 6.0861 0.7061 2.582 0.52948 6.4334 1.2425 8.5587 1.5845 2.1253 0.34201 4.2664 1.2817 4.7579 2.0881 0.4915 0.80646 1.7776 1.4663 2.858 1.4663 5.2504 0 28.617 9.2924 30.536 12.144 0.28603 0.42498-9.3675 0.72426-21.452 0.66508-19.472-0.0954-22.217 0.0947-24.122 1.6705-1.4245 1.1785-3.9617 1.7782-7.5237 1.7782-3.9659 0-6.0339 0.56892-7.8909 2.1709-2.1989 1.8968-3.8537 2.1766-13.109 2.2165-8.9874 0.0386-10.549 0.28709-10.308 1.6394 0.79037 4.4267-2.8658 5.0764-14.05 2.4966-6.5838-1.5186-7.2327-1.5147-8.9401 0.0531-2.076 1.9062-6.1454 1.4819-12.633-1.3171-2.4132-1.0412-6.7924-1.6806-11.619-1.6966-8.4217-0.0278-28.487-5.0829-56.435-14.217-10.82-3.5365-15.435-4.5789-18.621-4.2062-7.795 0.91206-8.7645-2.2413-9.567 18.103-0.77278 19.59-3.4679 41.302-7.8327 63.102-5.4175 4.2455-3.8056-5.1375-3.0161-9.5941zm12.81-78.22c-2.0326-1.2115-11.158-0.73223-9.8001 0.51476 0.58792 0.53984 2.586 0.94192 4.4401 0.89352 1.8541-0.0485 3.3711 0.39463 3.3711 0.98452 0 0.65259 0.67044 0.56163 1.7122-0.23228 1.3694-1.0436 1.4248-1.4762 0.27663-2.1605zm13.915-59.825c0.92421-1.7012 1.9895-5.2447 2.3673-7.8746l0.68692-4.7816-3.1726 5.5885c-1.764 3.1073-2.9675 6.6035-2.7106 7.8746 0.5975 2.9563 0.81877 2.8932 2.8289-0.80683zm8.4238-29.43c1.905 0.93614 2.0824 0.45514 2.4195-6.5573 0.20009-4.1622-0.0523-7.1832-0.56099-6.7136-2.0489 1.8921-8.1261 16.139-6.6646 15.624 0.90683-0.31953 1.5736 0.21895 1.6804 1.3572 0.0974 1.0378 0.37796 0.40026 0.62348-1.4167 0.38644-2.8598 0.72248-3.1678 2.5022-2.2933zm102.31-393.59q4.0107 0 7.424 0.93867 3.4987 0.85333 5.5467 2.3893 2.1333 1.536 2.1333 3.328 0 0.93867-0.68267 1.7067-0.59733 0.768-1.536 0.768-0.85333 0-1.4507-0.34133-0.512-0.34133-1.1947-1.024-1.1093-1.1093-2.1333-1.6213-1.28-0.59733-3.4133-0.93867-2.048-0.42667-4.4373-0.42667-4.6933 0-8.6187 2.3893-3.84 2.3893-6.0587 6.4853t-2.2187 9.0453q0 5.12 2.1333 9.216t5.888 6.4853q3.84 2.304 8.704 2.304 3.072 0 4.864-0.512 1.8773-0.512 3.6693-1.4507 0.59734-0.34133 2.048-1.536 0.68267-0.59733 1.1947-0.85333 0.512-0.34133 1.1093-0.34133 1.024 0 1.6213 0.68267 0.59733 0.59733 0.59733 1.6213 0 1.4507-2.048 3.1573-2.048 1.6213-5.632 2.816t-7.936 1.1947q-6.2293 0-11.093-2.9013-4.864-2.9867-7.5947-8.192-2.6453-5.2053-2.6453-11.691 0-6.2293 2.7307-11.349 2.7307-5.2053 7.68-8.2773t11.349-3.072zm-32.171 42.069q0 1.1093-0.768 1.8773-0.68267 0.68267-1.792 0.68267t-1.8773-0.68267q-0.68267-0.768-0.68267-1.8773v-39.253q0-1.1093 0.68267-1.792 0.768-0.768 1.8773-0.768t1.792 0.768q0.768 0.68267 0.768 1.792zm-2.56-47.531q-1.7067 0-2.6453-0.768-0.93867-0.85333-0.93867-2.3893v-0.85333q0-1.536 0.93867-2.304 1.024-0.85333 2.7307-0.85333 3.4133 0 3.4133 3.1573v0.85333q0 1.536-0.93867 2.3893-0.85333 0.768-2.56 0.768zm-31.147 5.4613q7.936 0 11.605 4.6933 3.7547 4.608 3.7547 12.288v25.088q0 1.1093-0.768 1.8773-0.768 0.68267-1.792 0.68267-1.1093 0-1.8773-0.68267-0.68267-0.768-0.68267-1.8773v-24.83q0-5.5467-2.816-8.96-2.7307-3.4987-8.5333-3.4987-3.6693 0-6.9973 1.7067-3.2427 1.7067-5.2907 4.608-2.048 2.816-2.048 6.144v24.832q0 1.1093-0.768 1.8773-0.68266 0.68267-1.792 0.68267t-1.8773-0.68267q-0.68267-0.768-0.68267-1.8773v-38.23q0-1.1093 0.68267-1.792 0.768-0.768 1.8773-0.768t1.792 0.768q0.768 0.68267 0.768 1.792v4.6933q2.304-3.6693 6.5707-6.0587 4.352-2.4747 8.8747-2.4747zm-36.523 1.024q1.1093 0 1.792 0.768 0.768 0.768 0.768 1.8773v38.4q0 1.1093-0.768 1.8773-0.68266 0.68267-1.792 0.68267t-1.8773-0.68267q-0.68267-0.768-0.68267-1.8773v-5.7173q-2.1333 3.84-6.4 6.4853t-9.3013 2.6453q-5.7173 0-10.325-2.9867-4.5227-2.9867-7.168-8.192-2.56-5.2053-2.56-11.691 0-6.4853 2.6453-11.605 2.6453-5.2053 7.168-8.1067 4.608-2.9013 10.155-2.9013 5.12 0 9.3867 2.4747t6.4 6.4853v-5.2907q0-1.1093 0.68267-1.8773 0.768-0.768 1.8773-0.768zm-17.749 39.68q4.4373 0 7.936-2.304 3.584-2.3893 5.5467-6.4853 2.048-4.1813 2.048-9.3013 0-4.9493-2.048-9.0453-1.9627-4.096-5.5467-6.4-3.4987-2.3893-7.936-2.3893t-8.0213 2.304q-3.4987 2.304-5.5467 6.4-1.9627 4.0107-1.9627 9.1307t1.9627 9.3013q1.9627 4.096 5.4613 6.4853 3.584 2.304 8.1067 2.304zm-33.7-39.679q1.1093 0 1.792 0.768 0.768 0.68267 0.768 1.8773v36.95q0 6.656-2.816 11.349-2.7307 4.7787-7.5947 7.2533-4.7787 2.4747-11.008 2.4747-2.9867 0-6.3147-0.768-3.2427-0.768-5.632-1.9627-2.304-1.1947-2.6453-2.4747-0.59733-0.59733-0.59733-1.3653 0-0.85334 0.768-1.3653 0.34133-0.256 0.85333-0.256t1.9627 0.59734l1.792 0.768q5.2907 2.048 9.8987 2.048 7.5947 0 11.861-4.352 4.352-4.2667 4.352-11.605v-5.2907q-2.1333 4.608-6.7413 7.2533-4.608 2.56-9.6427 2.56-5.888 0-10.667-2.9013-4.6933-2.9867-7.424-8.192t-2.7307-11.691q0-6.4 2.7307-11.605 2.7307-5.2053 7.424-8.1067 4.7787-2.9867 10.581-2.9867 5.376 0 9.8133 2.7307 4.5227 2.6453 6.656 6.4v-5.4613q0-1.1093 0.68267-1.8773 0.768-0.768 1.8773-0.768zm-18.517 39.68q4.6933 0 8.3627-2.2187 3.7547-2.304 5.8027-6.4 2.1333-4.1813 2.1333-9.3867 0-5.2053-2.1333-9.3013-2.048-4.096-5.8027-6.3147-3.6693-2.304-8.3627-2.304-4.608 0-8.3627 2.3893-3.6693 2.304-5.8027 6.4-2.048 4.096-2.048 9.1307 0 5.12 2.048 9.216 2.1333 4.096 5.8027 6.4853 3.7547 2.304 8.3627 2.304zm-30.81-40.704q1.7067 0 3.072 0.68267t1.3653 2.048q0 1.1947-0.68267 1.9627-0.68267 0.68267-1.6213 0.68267-0.42667 0-1.7067-0.42667-1.1947-0.42667-2.304-0.42667-3.1573 0-6.3147 2.4747-3.072 2.3893-5.12 6.2293-1.9627 3.84-1.9627 7.7653v21.077q0 1.1093-0.768 1.8773-0.68267 0.68267-1.792 0.68267t-1.8773-0.68267q-0.68266-0.768-0.68266-1.8773v-38.229q0-1.1093 0.68266-1.792 0.768-0.768 1.8773-0.768t1.792 0.768q0.768 0.68267 0.768 1.792v7.5093q1.9627-4.864 5.888-8.0213 4.0107-3.2427 9.3867-3.328zm-31.232 14.763q0 8.7893-3.6693 15.787-3.6693 6.9973-10.155 11.008-6.4853 3.9253-14.763 3.9253-8.2773 0-14.763-3.9253-6.4853-4.0107-10.155-11.008-3.6693-6.9973-3.6693-15.787 0-8.8747 3.6693-15.872t10.155-10.923q6.4853-3.9253 14.763-3.9253 8.2773 0 14.763 3.9253 6.4853 3.9253 10.155 10.923 3.6693 6.9973 3.6693 15.872zm-5.4613 0q0-7.424-2.9867-13.227-2.9013-5.888-8.192-9.1307-5.2053-3.2427-11.947-3.2427-6.7413 0-12.032 3.2427-5.2053 3.2427-8.192 9.1307-2.9013 5.8027-2.9013 13.227 0 7.424 2.9013 13.312 2.9867 5.8027 8.192 9.0453 5.2907 3.2427 12.032 3.2427t11.947-3.2427q5.2907-3.2427 8.192-9.0453 2.9867-5.888 2.9867-13.312z" fill="#222"/>
 </g>
</svg>
