<?xml version="1.0" encoding="utf-8"?>
<!-- Generator: Adobe Illustrator 18.1.1, SVG Export Plug-In . SVG Version: 6.00 Build 0)  -->
<!DOCTYPE svg PUBLIC "-//W3C//DTD SVG 1.1//EN" "http://www.w3.org/Graphics/SVG/1.1/DTD/svg11.dtd">
<svg version="1.1" id="Layer_1" xmlns="http://www.w3.org/2000/svg" xmlns:xlink="http://www.w3.org/1999/xlink" x="0px" y="0px"
	 viewBox="0 0 184.8 184.8" enable-background="new 0 0 184.8 184.8" xml:space="preserve">
<g>
	<g>
		<path fill="#32BCAD" d="M92.4,184.8C41.4,184.8,0,143.3,0,92.4S41.4,0,92.4,0s92.4,41.4,92.4,92.4S143.3,184.8,92.4,184.8z"/>
	</g>
	<linearGradient id="SVGID_1_" gradientUnits="userSpaceOnUse" x1="157.837" y1="174.6014" x2="120.8196" y2="118.2298">
		<stop  offset="0" style="stop-color:#272D2B;stop-opacity:0"/>
		<stop  offset="1" style="stop-color:#231F20"/>
	</linearGradient>
	<path opacity="0.16" fill="url(#SVGID_1_)" d="M182.1,114.2l-48.4-35.6l-4.4,17.3l2.7,14l-1.5,17.5l-17.5,3H89.6h-8.9L68.6,136
		l46.1,46.4C148,174.1,174.2,147.6,182.1,114.2z"/>
	<path opacity="0.9" fill="#FFFFFF" d="M128.1,136H60.2c-4.7,0-8.5-3.8-8.5-8.5V85c0-4.7,3.8-8.5,8.5-8.5h4.2V63.8
		C64.5,47.4,77.8,34,94.2,34s29.7,13.3,29.7,29.8v12.7h4.2c4.7,0,8.5,3.8,8.5,8.5v42.5C136.6,132.2,132.8,136,128.1,136z
		 M111.2,63.8c0-9.4-7.6-17-17-17s-17,7.6-17,17v12.7h34V63.8z"/>
	<g>
		<path fill="#32BCAD" d="M83.7,100c-0.1-0.1-0.4-0.3-0.7-0.6c-0.4-0.2-0.8-0.5-1.3-0.7c-0.5-0.2-1.1-0.4-1.7-0.6
			c-0.6-0.2-1.2-0.2-1.8-0.2c-1.1,0-1.9,0.2-2.5,0.6c-0.5,0.4-0.8,1-0.8,1.7c0,0.4,0.1,0.8,0.3,1.1c0.2,0.3,0.5,0.5,0.9,0.7
			c0.4,0.2,0.9,0.4,1.5,0.6c0.6,0.2,1.3,0.4,2.1,0.6c1,0.3,1.9,0.6,2.8,0.9c0.8,0.3,1.5,0.7,2.1,1.2c0.6,0.5,1,1,1.3,1.7
			c0.3,0.7,0.5,1.5,0.5,2.4c0,1.1-0.2,2.1-0.6,2.9s-1,1.4-1.7,1.9c-0.7,0.5-1.5,0.8-2.5,1.1c-0.9,0.2-1.9,0.3-2.9,0.3
			c-1.6,0-3.1-0.2-4.6-0.7c-1.5-0.5-2.9-1.1-4.1-2l1.8-3.5c0.2,0.2,0.5,0.4,1,0.7c0.5,0.3,1,0.6,1.6,0.8c0.6,0.3,1.3,0.5,2.1,0.7
			c0.8,0.2,1.5,0.3,2.3,0.3c2.2,0,3.3-0.7,3.3-2.1c0-0.5-0.1-0.9-0.4-1.2c-0.3-0.3-0.6-0.6-1.1-0.8c-0.5-0.2-1-0.4-1.7-0.6
			c-0.7-0.2-1.4-0.4-2.2-0.6c-1-0.3-1.9-0.6-2.6-0.9c-0.7-0.3-1.3-0.7-1.8-1.1c-0.5-0.4-0.9-0.9-1.1-1.5c-0.2-0.6-0.4-1.3-0.4-2.1
			c0-1.1,0.2-2,0.6-2.8c0.4-0.8,0.9-1.5,1.6-2c0.7-0.5,1.5-1,2.4-1.2c0.9-0.3,1.9-0.4,3-0.4c1.5,0,2.8,0.2,4,0.7
			c1.2,0.5,2.3,1,3.2,1.6L83.7,100z"/>
		<path fill="#32BCAD" d="M102.3,100c-0.1-0.1-0.4-0.3-0.7-0.6c-0.4-0.2-0.8-0.5-1.3-0.7c-0.5-0.2-1.1-0.4-1.7-0.6
			c-0.6-0.2-1.2-0.2-1.8-0.2c-1.1,0-1.9,0.2-2.5,0.6c-0.5,0.4-0.8,1-0.8,1.7c0,0.4,0.1,0.8,0.3,1.1c0.2,0.3,0.5,0.5,0.9,0.7
			c0.4,0.2,0.9,0.4,1.5,0.6c0.6,0.2,1.3,0.4,2.1,0.6c1,0.3,1.9,0.6,2.8,0.9c0.8,0.3,1.5,0.7,2.1,1.2c0.6,0.5,1,1,1.3,1.7
			c0.3,0.7,0.5,1.5,0.5,2.4c0,1.1-0.2,2.1-0.6,2.9s-1,1.4-1.7,1.9c-0.7,0.5-1.5,0.8-2.5,1.1c-0.9,0.2-1.9,0.3-2.9,0.3
			c-1.6,0-3.1-0.2-4.6-0.7c-1.5-0.5-2.9-1.1-4.1-2l1.8-3.5c0.2,0.2,0.5,0.4,1,0.7c0.5,0.3,1,0.6,1.6,0.8c0.6,0.3,1.3,0.5,2.1,0.7
			c0.8,0.2,1.5,0.3,2.3,0.3c2.2,0,3.3-0.7,3.3-2.1c0-0.5-0.1-0.9-0.4-1.2c-0.3-0.3-0.6-0.6-1.1-0.8c-0.5-0.2-1-0.4-1.7-0.6
			c-0.7-0.2-1.4-0.4-2.2-0.6c-1-0.3-1.9-0.6-2.6-0.9c-0.7-0.3-1.3-0.7-1.8-1.1c-0.5-0.4-0.9-0.9-1.1-1.5c-0.2-0.6-0.4-1.3-0.4-2.1
			c0-1.1,0.2-2,0.6-2.8c0.4-0.8,0.9-1.5,1.6-2c0.7-0.5,1.5-1,2.4-1.2c0.9-0.3,1.9-0.4,3-0.4c1.5,0,2.8,0.2,4,0.7
			c1.2,0.5,2.3,1,3.2,1.6L102.3,100z"/>
		<path fill="#32BCAD" d="M108.5,115.3V94.5h4v17.2h10.6v3.5H108.5z"/>
	</g>
</g>
</svg>
