<?xml version="1.0" encoding="UTF-8"?>
<svg xmlns="http://www.w3.org/2000/svg" xml:space="preserve" height="357.82" viewBox="0 0 385.90665 357.82035" width="385.91">
  <defs>
    <clipPath id="clipPath38" clipPathUnits="userSpaceOnUse">
      <path d="m217.43 397.14c0-79.925 64.791-144.72 144.72-144.72 79.924 0 144.72 64.792 144.72 144.72 0 79.923-64.791 144.72-144.72 144.72-79.924 0-144.72-64.792-144.72-144.72"></path>
    </clipPath>
  </defs>
  <g transform="matrix(1.3333 0 0 -1.3333 -289.91 694.39)">
    <g clip-path="url(#clipPath38)">
      <g transform="translate(204.36 321.34)">
        <path d="m0 0c2.31 0 4.096 0 5.883-0.001 21.908-0.001 43.817-0.101 65.723 0.091 3.73 0.032 5.143-1.492 7.009-4.486 5.621-9.015 10.899-18.583 18.153-26.176 18.779-19.664 42.69-26.079 69.336-23.679 32.58 2.937 55.671 19.22 68.743 49.228 1.762 4.046 3.78 5.157 7.978 5.114 21.576-0.219 43.156-0.11 64.736-0.086 1.889 0.002 3.778 0.212 5.543 0.318v9.528c-26.705 0-53.046 0.093-79.383-0.196-1.904-0.021-4.835-2.459-5.505-4.391-9.661-27.873-28.588-44.273-57.957-49.116-37.15-6.123-70.965 12.633-84.516 47.885-1.612 4.195-3.769 5.928-8.284 5.9-24.213-0.154-48.428-0.068-72.642-0.084-1.574-0.001-3.146-0.17-4.828-0.267z" fill="#fff"></path>
      </g>
      <g transform="translate(507.86 413.49)">
        <path d="m0 0v67.114c-3.032 0-5.659-0.05-8.282 0.008-26.495 0.591-52.993 1.034-79.482 1.848-28.136 0.864-53.897 9.117-77.059 25.385-6.438 4.523-13.285 8.549-20.287 12.137-2.183 1.118-6.515 1.128-8.01-0.298-1.762-1.679-2.601-5.78-1.889-8.275 1.183-4.141 3.289-8.399 6.133-11.612 7.094-8.016 14.822-15.471 22.043-22.892-0.937 0.379-2.416 0.974-3.892 1.575-15.06 6.125-30.008 12.545-45.23 18.238-6.371 2.383-13.251 3.869-20.024 4.578-6.288 0.657-9.099-4.877-5.605-10.288 1.663-2.577 3.789-5.197 6.333-6.8 10.414-6.565 20.999-12.869 31.67-19.008 4.44-2.554 9.256-4.452 14.3-6.836-1.034-0.586-1.432-0.963-1.886-1.046-13.726-2.517-27.471-4.937-41.185-7.524-7.696-1.452-15.563-2.512-22.946-4.973-6.209-2.069-8.462-6.913-7.154-11.925 1.473-5.639 6.408-6.493 10.977-6.419 13.317 0.215 26.64 0.729 39.932 1.566 10.27 0.647 20.497 1.959 31.267 3.026-0.573-1.231-0.853-1.97-1.241-2.646-8.111-14.164-11.244-29.407-8.756-45.484 1.358-8.78 4.687-17.052 11.669-23.171 5.403-4.735 13.474-3.535 16.34 2.626 1.406 3.02 2.318 6.548 2.378 9.865 0.213 11.822-0.355 23.661-0.03 35.478 0.439 16.025 11.533 24.612 27.119 21.526 12.609-2.496 21.587-10.875 20.235-21.148-1.516-11.53-4.797-22.868-7.87-34.137-1.308-4.801-4.381-9.096-6.015-13.841-1.475-4.279-0.697-8.624 2.97-11.717 3.809-3.215 8.369-2.77 11.902-0.081 4.641 3.533 9.148 7.567 12.67 12.182 7.396 9.694 13.774 19.998 23.686 27.751 11.92 9.322 24.01 18.223 39.072 21.067 11.719 2.211 23.751 2.789 36.142 4.148" fill="#fff"></path>
      </g>
      <g transform="translate(507.86 413.49)">
        <path d="m0 0c-12.391-1.359-24.423-1.937-36.147-4.151-15.062-2.844-27.152-11.745-39.072-21.067-9.912-7.753-16.29-18.057-23.686-27.751-3.522-4.615-8.029-8.649-12.67-12.182-3.533-2.689-8.093-3.134-11.902 0.081-3.667 3.093-4.445 7.438-2.97 11.717 1.634 4.745 4.707 9.04 6.015 13.841 3.073 11.269 6.354 22.607 7.87 34.137 1.352 10.273-7.626 18.652-20.235 21.148-15.586 3.086-26.68-5.501-27.119-21.526-0.325-11.817 0.243-23.656 0.03-35.478-0.06-3.317-0.972-6.845-2.378-9.865-2.866-6.161-10.937-7.361-16.34-2.626-6.982 6.119-10.311 14.391-11.669 23.171-2.488 16.077 0.645 31.32 8.756 45.484 0.388 0.676 0.668 1.415 1.241 2.646-10.77-1.067-20.997-2.379-31.267-3.026-13.292-0.837-26.615-1.351-39.932-1.566-4.569-0.074-9.504 0.78-10.977 6.419-1.308 5.012 0.945 9.856 7.154 11.925 7.383 2.461 15.25 3.521 22.946 4.973 13.714 2.587 27.459 5.007 41.185 7.524 0.454 0.083 0.852 0.46 1.886 1.046-5.044 2.384-9.86 4.282-14.3 6.836-10.671 6.139-21.256 12.443-31.67 19.008-2.544 1.603-4.67 4.223-6.333 6.8-3.494 5.411-0.683 10.945 5.605 10.288 6.773-0.709 13.653-2.195 20.024-4.578 15.222-5.693 30.17-12.113 45.23-18.238 1.476-0.601 2.955-1.196 3.892-1.575-7.221 7.421-14.949 14.876-22.043 22.892-2.844 3.213-4.95 7.471-6.133 11.612-0.712 2.495 0.127 6.596 1.889 8.275 1.495 1.426 5.827 1.416 8.01 0.298 7.002-3.588 13.849-7.614 20.287-12.137 23.162-16.268 48.923-24.521 77.059-25.385 26.489-0.814 52.987-1.257 79.482-1.848 2.623-0.058 5.25-0.008 8.282-0.008z" fill-rule="evenodd" fill="#d87c29"></path>
      </g>
      <g transform="translate(360.06 299.43)">
        <path d="m0 0c-9.114 0-16.503 10.331-16.503 23.076 0 12.744 16.503 37.499 16.503 37.499" stroke="#795c3a" stroke-miterlimit="10" fill="#795c3a"></path>
      </g>
      <g transform="translate(360.06 360)">
        <path d="m0 0s16.502-24.754 16.502-37.499-7.388-23.076-16.502-23.076" fill="#b6bc50"></path>
      </g>
      <g transform="translate(366.17 341.47)">
        <path d="m0 0-6.186-6.169" stroke="#fff" stroke-linecap="round" stroke-miterlimit="10" fill="none"></path>
      </g>
      <g transform="translate(369.41 331.22)">
        <path d="m0 0-9.424-9.398" stroke="#fff" stroke-linecap="round" stroke-miterlimit="10" fill="none"></path>
      </g>
      <g transform="translate(372.98 320.53)">
        <path d="m0 0-13-12.963" stroke="#fff" stroke-linecap="round" stroke-miterlimit="10" fill="none"></path>
      </g>
      <g transform="translate(359.94 359.62)">
        <path d="m0 0v-60.409" stroke="#fff" stroke-miterlimit="10" stroke-width="1.5" fill="none"></path>
      </g>
      <g transform="translate(376.45 322.29)">
        <path d="m0 0c0-12.745-7.389-23.077-16.502-23.077-9.115 0-16.503 10.332-16.503 23.077 0 12.744 16.503 37.498 16.503 37.498s16.502-24.754 16.502-37.498z" stroke="#fff" stroke-miterlimit="10" stroke-width="1.5" fill="none"></path>
      </g>
      <g transform="translate(363.05 266.65)">
        <path d="m0 0h0.002-0.001zm-123.56 54.666 2.939-1.228-3.225 1.228zm198.6 9.68c-1.906-0.022-4.838-2.459-5.508-4.392-9.661-27.873-28.588-44.272-57.957-49.115-37.137-6.123-70.953 12.633-84.505 47.885-1.612 4.194-3.768 5.927-8.283 5.899-24.214-0.153-48.428-0.067-72.643-0.084-1.573-0.001-3.146-0.17-4.828-0.267v-9.582c2.31 0 4.097 0 5.883-0.001 9.493 0 18.987-0.017 28.48-0.023 25.478-41.388 71.197-68.983 123.36-68.983 52.16 0 97.863 27.594 123.34 68.972 8.831 0.01 17.661 0.031 26.492 0.04 1.89 0.002 3.778 0.212 5.543 0.319v9.527c-26.704 0-53.046 0.094-79.383-0.195" fill-rule="evenodd" fill="#795c3a"></path>
      </g>
      <g transform="translate(363.05 266.65)">
        <path d="m0 0h0.002-0.001zm-123.56 54.666 2.939-1.228-3.225 1.228zm198.6 9.68c-1.906-0.022-4.838-2.459-5.508-4.392-9.661-27.873-28.588-44.272-57.957-49.115-37.137-6.123-70.953 12.633-84.505 47.885-1.612 4.194-3.768 5.927-8.283 5.899-24.214-0.153-48.428-0.067-72.643-0.084-1.573-0.001-3.146-0.17-4.828-0.267v-9.582c2.31 0 4.097 0 5.883-0.001 9.493 0 18.987-0.017 28.48-0.023 25.478-41.388 71.197-68.983 123.36-68.983 52.16 0 97.863 27.594 123.34 68.972 8.831 0.01 17.661 0.031 26.492 0.04 1.89 0.002 3.778 0.212 5.543 0.319v9.527c-26.704 0-53.046 0.094-79.383-0.195z" stroke="#795c3a" stroke-miterlimit="10" stroke-width=".25" fill="none"></path>
      </g>
    </g>
  </g>
</svg>
