<?xml version="1.0" encoding="UTF-8" standalone="no"?>
<!-- Created with Inkscape (http://www.inkscape.org/) -->
<svg xmlns:dc="http://purl.org/dc/elements/1.1/" xmlns:cc="http://creativecommons.org/ns#" xmlns:rdf="http://www.w3.org/1999/02/22-rdf-syntax-ns#" xmlns:svg="http://www.w3.org/2000/svg" xmlns="http://www.w3.org/2000/svg" xmlns:sodipodi="http://sodipodi.sourceforge.net/DTD/sodipodi-0.dtd" xmlns:inkscape="http://www.inkscape.org/namespaces/inkscape" id="svg2" xml:space="preserve" width="182px" height="246px" viewBox="0 0 182 246" sodipodi:docname="goodseeds.svg" inkscape:version="0.92.2 (unknown)">
  <metadata id="metadata8"></metadata>
  <defs id="defs6">
    <clipPath clipPathUnits="userSpaceOnUse" id="clipPath22">
      <path d="M 0,360 H 360 V 0 H 0 Z" id="path20" inkscape:connector-curvature="0"></path>
    </clipPath>
  </defs>
  <g id="g10" inkscape:groupmode="layer" inkscape:label="Logo_three" transform="matrix(1.3333333,0,0,-1.3333333,-152.5153,375.73095)">
    <g id="g12" transform="translate(180.8574,262.4761)">
      <path d="M 0,0 V 18.815" style="fill:none;stroke:#231f20;stroke-width:1;stroke-linecap:round;stroke-linejoin:miter;stroke-miterlimit:10;stroke-dasharray:none;stroke-opacity:1" id="path14" inkscape:connector-curvature="0"></path>
    </g>
    <g id="g16">
      <g id="g18" clip-path="url(#clipPath22)">
        <g id="g24" transform="translate(210.96,136.2285)">
          <path d="m 0,0 c 0,-28.32 -13.482,-37.742 -30.103,-37.742 -16.619,0 -30.093,9.422 -30.093,37.742 0,28.316 26.368,84.279 30.093,84.279 C -25.993,84.279 0,28.316 0,0 Z" style="fill:none;stroke:#231f20;stroke-width:2;stroke-linecap:butt;stroke-linejoin:miter;stroke-miterlimit:10;stroke-dasharray:none;stroke-opacity:1" id="path26" inkscape:connector-curvature="0"></path>
        </g>
        <g id="g28" transform="translate(231.6719,207.7861)">
          <path d="M 0,0 18.815,-0.103" style="fill:none;stroke:#231f20;stroke-width:1;stroke-linecap:round;stroke-linejoin:miter;stroke-miterlimit:10;stroke-dasharray:none;stroke-opacity:1" id="path30" inkscape:connector-curvature="0"></path>
        </g>
        <g id="g32" transform="translate(114.8936,207.7324)">
          <path d="M 0,0 18.815,-0.1" style="fill:none;stroke:#231f20;stroke-width:1;stroke-linecap:round;stroke-linejoin:miter;stroke-miterlimit:10;stroke-dasharray:none;stroke-opacity:1" id="path34" inkscape:connector-curvature="0"></path>
        </g>
        <g id="g36" transform="translate(159.8281,195.5234)">
          <path d="M 0,0 C -5.225,5.286 -8.482,12.527 -8.549,20.551 -8.696,36.887 4.436,50.252 20.769,50.395 37.111,50.543 50.473,37.41 50.616,21.074 50.69,12.65 47.236,5.014 41.633,-0.428" style="fill:none;stroke:#231f20;stroke-width:1.5;stroke-linecap:round;stroke-linejoin:miter;stroke-miterlimit:10;stroke-dasharray:none;stroke-opacity:1" id="path38" inkscape:connector-curvature="0"></path>
        </g>
        <g id="g40" transform="translate(224.4395,245.9199)">
          <path d="M 0,0 14.466,12.03" style="fill:none;stroke:#231f20;stroke-width:1;stroke-linecap:round;stroke-linejoin:miter;stroke-miterlimit:10;stroke-dasharray:none;stroke-opacity:1" id="path42" inkscape:connector-curvature="0"></path>
        </g>
        <g id="g44" transform="translate(140.9414,245.9199)">
          <path d="M 0,0 -14.466,12.03" style="fill:none;stroke:#231f20;stroke-width:1;stroke-linecap:round;stroke-linejoin:miter;stroke-miterlimit:10;stroke-dasharray:none;stroke-opacity:1" id="path46" inkscape:connector-curvature="0"></path>
        </g>
      </g>
    </g>
  </g>
</svg>
